<?xml version="1.0" encoding="UTF-8"?>
<svg version="1.1" xmlns="http://www.w3.org/2000/svg" width="8321" height="8321">
<path d="M0 0 C454.49964182 -0.0201782 454.49964182 -0.0201782 579.23422478 -0.02508167 C581.61831914 -0.02517548 584.0024135 -0.02526931 586.38650786 -0.02536313 C588.17972143 -0.02543368 588.17972143 -0.02543368 590.00916154 -0.02550566 C593.73412428 -0.0256523 597.45908703 -0.02579923 601.18404977 -0.02594624 C734.92632844 -0.03122363 868.66860712 -0.03592012 1109.53298476 -0.042239 C1113.68697152 -0.04234323 1117.84095827 -0.04244766 1121.99494503 -0.04255217 C1239.69609701 -0.04551292 1357.397249 -0.04827977 1475.098401 -0.05078693 C1479.45449906 -0.05087972 1483.81059712 -0.05097252 1488.16669517 -0.05106533 C1490.32480925 -0.05111131 1490.32480925 -0.05111131 1492.5265216 -0.05115821 C1546.62608882 -0.05231126 1600.72565604 -0.05350863 1654.82522326 -0.05473244 C1660.70330401 -0.05486537 1666.58138477 -0.05499779 1672.45946552 -0.05512976 C1811.24659769 -0.05824594 1950.03372976 -0.06215991 2088.82086182 -0.06866455 C2091.012904 -0.0687672 2091.012904 -0.0687672 2093.24922987 -0.06887193 C2141.8475452 -0.07114902 2190.44586053 -0.0735034 2239.04417586 -0.07586844 C2282.95418628 -0.07800509 2326.86419669 -0.08011399 2370.77420712 -0.08213139 C2372.93782338 -0.08223081 2372.93782338 -0.08223081 2375.14514906 -0.08233224 C2465.4459383 -0.08647447 2555.74672751 -0.0894153 2646.04751682 -0.09113979 C2648.13877836 -0.09117997 2648.13877836 -0.09117997 2650.27228761 -0.09122096 C2711.49421358 -0.09239615 2772.71613956 -0.09332053 2833.93806554 -0.0939579 C2858.56607038 -0.09421546 2883.19407523 -0.09451019 2907.82208007 -0.09482527 C2911.90566924 -0.09487721 2915.98925841 -0.09492794 2920.07284759 -0.09497854 C2982.57747189 -0.09576166 3045.08209604 -0.0973767 3107.58672023 -0.10139394 C3108.93588503 -0.10148064 3110.28504984 -0.10156734 3111.67509842 -0.10165666 C3133.37997938 -0.10305653 3155.08486034 -0.10452544 3176.78974129 -0.10600626 C3238.37074873 -0.1102076 3299.951756 -0.11394813 3361.5327636 -0.11413276 C3362.78098535 -0.11413674 3364.0292071 -0.11414071 3365.31525375 -0.11414481 C3392.5403745 -0.11422158 3419.76549525 -0.11402547 3446.990616 -0.1135619 C3457.8469678 -0.11338145 3468.7033196 -0.11323843 3479.5596714 -0.11310768 C3481.33609228 -0.11308483 3481.33609228 -0.11308483 3483.14840045 -0.11306151 C3520.77784643 -0.11259541 3558.40729136 -0.11521778 3596.03673707 -0.11960873 C3633.05794205 -0.12391634 3670.07914572 -0.12522238 3707.10035087 -0.12209016 C3712.15992982 -0.1216626 3717.21950877 -0.12127018 3722.27908773 -0.12089889 C3723.26968125 -0.12082487 3724.26027477 -0.12075084 3725.28088627 -0.12067457 C3740.95875479 -0.11959474 3756.63662096 -0.12187292 3772.31448901 -0.12555815 C3787.61861262 -0.12908814 3802.92273279 -0.12912371 3818.22685638 -0.12530107 C3827.17558129 -0.12317326 3836.1242959 -0.12381447 3845.07301991 -0.12846097 C3850.98349033 -0.13126192 3856.89395305 -0.13051051 3862.80442292 -0.12673209 C3866.15996146 -0.12468979 3869.51546276 -0.12481293 3872.87100277 -0.12820339 C3876.45784065 -0.13159225 3880.04462217 -0.12896072 3883.6314578 -0.12467116 C3884.68255349 -0.12713146 3885.73364918 -0.12959175 3886.81659625 -0.13212659 C3888.2307562 -0.12853216 3888.2307562 -0.12853216 3889.67348504 -0.12486512 C3890.90028521 -0.12490451 3890.90028521 -0.12490451 3892.15186922 -0.12494468 C3894 0 3894 0 3895 1 C3895 3.64 3895 6.28 3895 9 C3952.75 9 4010.5 9 4070 9 C4070 11.64 4070 14.28 4070 17 C4094.75 17 4119.5 17 4145 17 C4145 19.64 4145 22.28 4145 25 C4166.78 25 4188.56 25 4211 25 C4211 27.97 4211 30.94 4211 34 C4233.11 34 4255.22 34 4278 34 C4278 36.64 4278 39.28 4278 42 C4294.5 42 4311 42 4328 42 C4328 44.64 4328 47.28 4328 50 C4341.53 50 4355.06 50 4369 50 C4369 52.64 4369 55.28 4369 58 C4382.86 58 4396.72 58 4411 58 C4411 60.97 4411 63.94 4411 67 C4424.53 67 4438.06 67 4452 67 C4452 69.64 4452 72.28 4452 75 C4463.22 75 4474.44 75 4486 75 C4486 77.64 4486 80.28 4486 83 C4496.89 83 4507.78 83 4519 83 C4519 85.97 4519 88.94 4519 92 C4529.89 92 4540.78 92 4552 92 C4552 94.64 4552 97.28 4552 100 C4560.25 100 4568.5 100 4577 100 C4577 102.64 4577 105.28 4577 108 C4577.99443115 107.99476318 4578.9888623 107.98952637 4580.01342773 107.98413086 C4583.69033921 107.96607959 4587.36724675 107.95456754 4591.04418945 107.94506836 C4592.63794614 107.94002843 4594.23169819 107.9331965 4595.82543945 107.92456055 C4598.11150253 107.91248001 4600.39750467 107.90676845 4602.68359375 107.90234375 C4603.40026718 107.89718246 4604.11694061 107.89202118 4604.85533142 107.88670349 C4606.57063672 107.88650737 4608.28581266 107.93807993 4610 108 C4611 109 4611 109 4611 117 C4619.25 117 4627.5 117 4636 117 C4636 119.64 4636 122.28 4636 125 C4643.92 125 4651.84 125 4660 125 C4660 127.64 4660 130.28 4660 133 C4668.25 133 4676.5 133 4685 133 C4685 135.97 4685 138.94 4685 142 C4693.25 142 4701.5 142 4710 142 C4710 144.64 4710 147.28 4710 150 C4715.61 150 4721.22 150 4727 150 C4727 152.64 4727 155.28 4727 158 C4735.25 158 4743.5 158 4752 158 C4752 160.97 4752 163.94 4752 167 C4757.61 167 4763.22 167 4769 167 C4769 169.64 4769 172.28 4769 175 C4777.25 175 4785.5 175 4794 175 C4794 177.64 4794 180.28 4794 183 C4799.28 183 4804.56 183 4810 183 C4810 185.97 4810 188.94 4810 192 C4815.61 192 4821.22 192 4827 192 C4827 194.64 4827 197.28 4827 200 C4835.25 200 4843.5 200 4852 200 C4852 202.64 4852 205.28 4852 208 C4857.28 208 4862.56 208 4868 208 C4868 210.97 4868 213.94 4868 217 C4873.61 217 4879.22 217 4885 217 C4885 219.64 4885 222.28 4885 225 C4890.61 225 4896.22 225 4902 225 C4902 227.64 4902 230.28 4902 233 C4907.28 233 4912.56 233 4918 233 C4918 235.97 4918 238.94 4918 242 C4923.61 242 4929.22 242 4935 242 C4935 244.64 4935 247.28 4935 250 C4940.61 250 4946.22 250 4952 250 C4952 252.64 4952 255.28 4952 258 C4957.28 258 4962.56 258 4968 258 C4968 260.97 4968 263.94 4968 267 C4973.61 267 4979.22 267 4985 267 C4985 269.64 4985 272.28 4985 275 C4987.64 275 4990.28 275 4993 275 C4993 277.64 4993 280.28 4993 283 C4998.61 283 5004.22 283 5010 283 C5010 285.64 5010 288.28 5010 291 C5011.14339844 290.98839844 5012.28679687 290.97679688 5013.46484375 290.96484375 C5014.95572754 290.95546712 5016.44661309 290.94636679 5017.9375 290.9375 C5018.69224609 290.92912109 5019.44699219 290.92074219 5020.22460938 290.91210938 C5022.14994313 290.90347559 5024.07535581 290.94775667 5026 291 C5027 292 5027 292 5027 300 C5032.28 300 5037.56 300 5043 300 C5043 302.64 5043 305.28 5043 308 C5045.97 308 5048.94 308 5052 308 C5052 310.64 5052 313.28 5052 316 C5057.28 316 5062.56 316 5068 316 C5068 318.97 5068 321.94 5068 325 C5070.97 325 5073.94 325 5077 325 C5077 327.64 5077 330.28 5077 333 C5082.28 333 5087.56 333 5093 333 C5093 335.64 5093 338.28 5093 341 C5095.64 341 5098.28 341 5101 341 C5101 343.97 5101 346.94 5101 350 C5106.61 350 5112.22 350 5118 350 C5118 352.64 5118 355.28 5118 358 C5120.64 358 5123.28 358 5126 358 C5126 360.64 5126 363.28 5126 366 C5131.61 366 5137.22 366 5143 366 C5143 368.97 5143 371.94 5143 375 C5145.64 375 5148.28 375 5151 375 C5151 377.64 5151 380.28 5151 383 C5156.61 383 5162.22 383 5168 383 C5168 385.64 5168 388.28 5168 391 C5170.64 391 5173.28 391 5176 391 C5176 393.97 5176 396.94 5176 400 C5178.97 400 5181.94 400 5185 400 C5185 402.64 5185 405.28 5185 408 C5187.64 408 5190.28 408 5193 408 C5193 410.64 5193 413.28 5193 416 C5198.61 416 5204.22 416 5210 416 C5210 418.97 5210 421.94 5210 425 C5212.64 425 5215.28 425 5218 425 C5218 427.64 5218 430.28 5218 433 C5220.64 433 5223.28 433 5226 433 C5226 435.64 5226 438.28 5226 441 C5227.14339844 440.98839844 5228.28679687 440.97679688 5229.46484375 440.96484375 C5230.95572754 440.95546712 5232.44661309 440.94636679 5233.9375 440.9375 C5234.69224609 440.92912109 5235.44699219 440.92074219 5236.22460938 440.91210938 C5238.14994313 440.90347559 5240.07535581 440.94775667 5242 441 C5243 442 5243 442 5243.09765625 443.84765625 C5243.06510417 445.8984375 5243.03255208 447.94921875 5243 450 C5245.64 450 5248.28 450 5251 450 C5251 452.64 5251 455.28 5251 458 C5253.97 458 5256.94 458 5260 458 C5260 460.64 5260 463.28 5260 466 C5262.64 466 5265.28 466 5268 466 C5268 468.97 5268 471.94 5268 475 C5270.64 475 5273.28 475 5276 475 C5276 477.64 5276 480.28 5276 483 C5278.97 483 5281.94 483 5285 483 C5285 485.64 5285 488.28 5285 491 C5287.64 491 5290.28 491 5293 491 C5293 493.64 5293 496.28 5293 499 C5294.14339844 498.98839844 5295.28679687 498.97679688 5296.46484375 498.96484375 C5297.95572754 498.95546712 5299.44661309 498.94636679 5300.9375 498.9375 C5301.69224609 498.92912109 5302.44699219 498.92074219 5303.22460938 498.91210938 C5305.14994313 498.90347559 5307.07535581 498.94775667 5309 499 C5310 500 5310 500 5310.09765625 501.84765625 C5310.06510417 503.8984375 5310.03255208 505.94921875 5310 508 C5312.64 508 5315.28 508 5318 508 C5318 510.64 5318 513.28 5318 516 C5320.64 516 5323.28 516 5326 516 C5326 518.64 5326 521.28 5326 524 C5328.64 524 5331.28 524 5334 524 C5334 526.97 5334 529.94 5334 533 C5336.97 533 5339.94 533 5343 533 C5343 535.64 5343 538.28 5343 541 C5345.64 541 5348.28 541 5351 541 C5351 543.64 5351 546.28 5351 549 C5353.64 549 5356.28 549 5359 549 C5359 551.97 5359 554.94 5359 558 C5361.97 558 5364.94 558 5368 558 C5368 560.64 5368 563.28 5368 566 C5370.64 566 5373.28 566 5376 566 C5376 568.64 5376 571.28 5376 574 C5378.64 574 5381.28 574 5384 574 C5384 576.97 5384 579.94 5384 583 C5386.97 583 5389.94 583 5393 583 C5393 585.64 5393 588.28 5393 591 C5395.64 591 5398.28 591 5401 591 C5401 593.64 5401 596.28 5401 599 C5403.64 599 5406.28 599 5409 599 C5409 601.97 5409 604.94 5409 608 C5411.97 608 5414.94 608 5418 608 C5418 610.64 5418 613.28 5418 616 C5420.64 616 5423.28 616 5426 616 C5426 621.61 5426 627.22 5426 633 C5428.64 633 5431.28 633 5434 633 C5434 635.64 5434 638.28 5434 641 C5436.97 641 5439.94 641 5443 641 C5443 643.64 5443 646.28 5443 649 C5445.64 649 5448.28 649 5451 649 C5451 651.97 5451 654.94 5451 658 C5453.64 658 5456.28 658 5459 658 C5459 660.64 5459 663.28 5459 666 C5461.97 666 5464.94 666 5468 666 C5468 668.64 5468 671.28 5468 674 C5470.64 674 5473.28 674 5476 674 C5476 676.97 5476 679.94 5476 683 C5478.64 683 5481.28 683 5484 683 C5484 688.28 5484 693.56 5484 699 C5486.97 699 5489.94 699 5493 699 C5493 701.97 5493 704.94 5493 708 C5495.64 708 5498.28 708 5501 708 C5501 710.64 5501 713.28 5501 716 C5503.64 716 5506.28 716 5509 716 C5509 718.64 5509 721.28 5509 724 C5511.97 724 5514.94 724 5518 724 C5518 729.61 5518 735.22 5518 741 C5520.64 741 5523.28 741 5526 741 C5526 743.64 5526 746.28 5526 749 C5528.64 749 5531.28 749 5534 749 C5534 751.64 5534 754.28 5534 757 C5536.64 757 5539.28 757 5542 757 C5542 762.61 5542 768.22 5542 774 C5544.97 774 5547.94 774 5551 774 C5551 776.64 5551 779.28 5551 782 C5553.64 782 5556.28 782 5559 782 C5559 784.97 5559 787.94 5559 791 C5561.64 791 5564.28 791 5567 791 C5567 796.28 5567 801.56 5567 807 C5569.97 807 5572.94 807 5576 807 C5576 809.97 5576 812.94 5576 816 C5578.64 816 5581.28 816 5584 816 C5584 821.28 5584 826.56 5584 832 C5586.64 832 5589.28 832 5592 832 C5592 834.97 5592 837.94 5592 841 C5594.97 841 5597.94 841 5601 841 C5601 846.28 5601 851.56 5601 857 C5603.64 857 5606.28 857 5609 857 C5609 859.97 5609 862.94 5609 866 C5611.64 866 5614.28 866 5617 866 C5617 871.28 5617 876.56 5617 882 C5619.97 882 5622.94 882 5626 882 C5626 884.97 5626 887.94 5626 891 C5628.64 891 5631.28 891 5634 891 C5634 896.28 5634 901.56 5634 907 C5636.64 907 5639.28 907 5642 907 C5642 909.97 5642 912.94 5642 916 C5644.64 916 5647.28 916 5650 916 C5650.495 923.92 5650.495 923.92 5651 932 C5653.64 932 5656.28 932 5659 932 C5659 937.61 5659 943.22 5659 949 C5661.64 949 5664.28 949 5667 949 C5667 951.64 5667 954.28 5667 957 C5668.299375 956.979375 5669.59875 956.95875 5670.9375 956.9375 C5672.29165633 956.91600546 5673.64756083 956.92851801 5675 957 C5676 958 5676 958 5676 966 C3802.92 966 1929.84 966 0 966 C0 647.22 0 328.44 0 0 Z " fill="#FFFFFF" transform="translate(1381,2013)"/>
<path d="M0 0 C343.53 0 687.06 0 1041 0 C1041 10.89 1041 21.78 1041 33 C1043.97 33 1046.94 33 1050 33 C1050 46.86 1050 60.72 1050 75 C1052.64 75 1055.28 75 1058 75 C1058 88.86 1058 102.72 1058 117 C1060.64 117 1063.28 117 1066 117 C1066 133.5 1066 150 1066 167 C1068.64 167 1071.28 167 1074 167 C1074.99861056 173.60672455 1075.13039257 180.04373397 1075.09765625 186.71875 C1075.0962413 187.81723267 1075.09482635 188.91571533 1075.09336853 190.04748535 C1075.08780257 193.53168543 1075.07525639 197.01581958 1075.0625 200.5 C1075.0574806 202.8723949 1075.05291846 205.24479082 1075.04882812 207.6171875 C1075.0378443 213.41148056 1075.0211403 219.20573557 1075 225 C1077.64 225 1080.28 225 1083 225 C1083 252.39 1083 279.78 1083 308 C1085.64 308 1088.28 308 1091 308 C1091 346.28 1091 384.56 1091 424 C1093.64 424 1096.28 424 1099 424 C1100.86451765 425.86451765 1100.12279455 428.53700072 1100.12908131 431.01803213 C1100.12616847 431.89058266 1100.12325563 432.76313318 1100.12025452 433.66212463 C1100.12110894 434.58177834 1100.12196337 435.50143205 1100.12284368 436.44895405 C1100.1245013 439.55526277 1100.11897252 442.66151845 1100.11352539 445.76782227 C1100.11324355 447.98469034 1100.11340118 450.2015585 1100.1139679 452.41842651 C1100.11425601 458.45743901 1100.1083571 464.49643183 1100.10139394 470.53543973 C1100.09516264 476.83888733 1100.09455678 483.14233532 1100.09336853 489.44578552 C1100.09060883 500.03246395 1100.08435332 510.61913589 1100.07543945 521.20581055 C1100.06626603 532.11206018 1100.05918486 543.01830784 1100.05493164 553.92456055 C1100.05466892 554.59637183 1100.05440619 555.26818311 1100.05413551 555.96035231 C1100.05283051 559.33049769 1100.05156679 562.70064309 1100.05032361 566.0707885 C1100.03985771 594.04719739 1100.02225698 622.02359819 1100 650 C1097.03 650 1094.06 650 1091 650 C1091 690.92 1091 731.84 1091 774 C1088.36 774 1085.72 774 1083 774 C1083 799.08 1083 824.16 1083 850 C1080.36 850 1077.72 850 1075 850 C1075 869.14 1075 888.28 1075 908 C1072.03 908 1069.06 908 1066 908 C1066 924.5 1066 941 1066 958 C1063.36 958 1060.72 958 1058 958 C1058 971.53 1058 985.06 1058 999 C1055.36 999 1052.72 999 1050 999 C1050 1012.86 1050 1026.72 1050 1041 C1047.03 1041 1044.06 1041 1041 1041 C1041 1054.86 1041 1068.72 1041 1083 C1038.36 1083 1035.72 1083 1033 1083 C1033 1093.89 1033 1104.78 1033 1116 C1030.36 1116 1027.72 1116 1025 1116 C1025 1126.89 1025 1137.78 1025 1149 C1022.03 1149 1019.06 1149 1016 1149 C1016 1157.25 1016 1165.5 1016 1174 C1013.36 1174 1010.72 1174 1008 1174 C1008 1182.25 1008 1190.5 1008 1199 C1005.36 1199 1002.72 1199 1000 1199 C1000 1209.89 1000 1220.78 1000 1232 C997.03 1232 994.06 1232 991 1232 C991 1240.25 991 1248.5 991 1257 C988.36 1257 985.72 1257 983 1257 C983 1265.25 983 1273.5 983 1282 C980.36 1282 977.72 1282 975 1282 C975 1287.61 975 1293.22 975 1299 C972.03 1299 969.06 1299 966 1299 C966 1307.25 966 1315.5 966 1324 C963.36 1324 960.72 1324 958 1324 C958 1332.25 958 1340.5 958 1349 C955.36 1349 952.72 1349 950 1349 C950 1354.61 950 1360.22 950 1366 C947.03 1366 944.06 1366 941 1366 C941 1371.28 941 1376.56 941 1382 C938.36 1382 935.72 1382 933 1382 C933 1390.25 933 1398.5 933 1407 C930.36 1407 927.72 1407 925 1407 C925 1412.61 925 1418.22 925 1424 C922.36 1424 919.72 1424 917 1424 C917 1429.28 917 1434.56 917 1440 C914.03 1440 911.06 1440 908 1440 C908 1448.25 908 1456.5 908 1465 C905.36 1465 902.72 1465 900 1465 C900 1470.61 900 1476.22 900 1482 C897.36 1482 894.72 1482 892 1482 C892.01160156 1483.14339844 892.02320312 1484.28679687 892.03515625 1485.46484375 C892.04453288 1486.95572754 892.05363321 1488.44661309 892.0625 1489.9375 C892.07506836 1491.06961914 892.07506836 1491.06961914 892.08789062 1492.22460938 C892.09652441 1494.14994313 892.05224333 1496.07535581 892 1498 C891.505 1498.495 891.505 1498.495 891 1499 C888.36 1499 885.72 1499 883 1499 C883 1504.28 883 1509.56 883 1515 C880.36 1515 877.72 1515 875 1515 C875 1520.61 875 1526.22 875 1532 C872.36 1532 869.72 1532 867 1532 C867 1534.64 867 1537.28 867 1540 C864.03 1540 861.06 1540 858 1540 C858 1545.61 858 1551.22 858 1557 C855.36 1557 852.72 1557 850 1557 C850 1562.61 850 1568.22 850 1574 C847.36 1574 844.72 1574 842 1574 C842 1579.28 842 1584.56 842 1590 C839.03 1590 836.06 1590 833 1590 C833 1595.61 833 1601.22 833 1607 C830.36 1607 827.72 1607 825 1607 C825 1609.64 825 1612.28 825 1615 C822.36 1615 819.72 1615 817 1615 C817 1620.61 817 1626.22 817 1632 C814.03 1632 811.06 1632 808 1632 C808 1637.28 808 1642.56 808 1648 C805.36 1648 802.72 1648 800 1648 C800 1650.97 800 1653.94 800 1657 C797.36 1657 794.72 1657 792 1657 C792 1662.28 792 1667.56 792 1673 C789.03 1673 786.06 1673 783 1673 C783 1675.97 783 1678.94 783 1682 C780.36 1682 777.72 1682 775 1682 C775 1687.28 775 1692.56 775 1698 C772.36 1698 769.72 1698 767 1698 C767 1700.97 767 1703.94 767 1707 C764.03 1707 761.06 1707 758 1707 C758 1712.28 758 1717.56 758 1723 C755.36 1723 752.72 1723 750 1723 C750 1725.97 750 1728.94 750 1732 C747.36 1732 744.72 1732 742 1732 C742 1737.28 742 1742.56 742 1748 C739.03 1748 736.06 1748 733 1748 C733 1750.97 733 1753.94 733 1757 C730.36 1757 727.72 1757 725 1757 C725 1759.64 725 1762.28 725 1765 C722.36 1765 719.72 1765 717 1765 C717 1770.61 717 1776.22 717 1782 C714.03 1782 711.06 1782 708 1782 C708 1784.64 708 1787.28 708 1790 C705.36 1790 702.72 1790 700 1790 C700 1792.64 700 1795.28 700 1798 C697.36 1798 694.72 1798 692 1798 C692 1803.61 692 1809.22 692 1815 C689.36 1815 686.72 1815 684 1815 C684 1817.64 684 1820.28 684 1823 C681.03 1823 678.06 1823 675 1823 C675 1825.97 675 1828.94 675 1832 C672.36 1832 669.72 1832 667 1832 C667 1834.64 667 1837.28 667 1840 C664.36 1840 661.72 1840 659 1840 C659.01160156 1841.14339844 659.02320312 1842.28679687 659.03515625 1843.46484375 C659.04453288 1844.95572754 659.05363321 1846.44661309 659.0625 1847.9375 C659.07506836 1849.06961914 659.07506836 1849.06961914 659.08789062 1850.22460938 C659.09652441 1852.14994313 659.05224333 1854.07535581 659 1856 C658 1857 658 1857 656.15234375 1857.09765625 C654.1015625 1857.06510417 652.05078125 1857.03255208 650 1857 C650 1859.64 650 1862.28 650 1865 C647.36 1865 644.72 1865 642 1865 C642 1867.64 642 1870.28 642 1873 C639.36 1873 636.72 1873 634 1873 C634 1875.64 634 1878.28 634 1881 C631.03 1881 628.06 1881 625 1881 C625 1883.97 625 1886.94 625 1890 C622.36 1890 619.72 1890 617 1890 C617 1892.64 617 1895.28 617 1898 C614.36 1898 611.72 1898 609 1898 C609 1903.61 609 1909.22 609 1915 C606.03 1915 603.06 1915 600 1915 C600 1917.64 600 1920.28 600 1923 C597.36 1923 594.72 1923 592 1923 C592 1925.64 592 1928.28 592 1931 C589.36 1931 586.72 1931 584 1931 C584 1933.97 584 1936.94 584 1940 C581.03 1940 578.06 1940 575 1940 C575 1942.64 575 1945.28 575 1948 C572.36 1948 569.72 1948 567 1948 C567 1950.64 567 1953.28 567 1956 C564.36 1956 561.72 1956 559 1956 C559 1958.97 559 1961.94 559 1965 C556.03 1965 553.06 1965 550 1965 C550 1967.64 550 1970.28 550 1973 C547.36 1973 544.72 1973 542 1973 C542 1975.64 542 1978.28 542 1981 C539.36 1981 536.72 1981 534 1981 C534 1983.97 534 1986.94 534 1990 C531.03 1990 528.06 1990 525 1990 C525 1992.64 525 1995.28 525 1998 C522.36 1998 519.72 1998 517 1998 C517 2000.64 517 2003.28 517 2006 C514.36 2006 511.72 2006 509 2006 C509 2008.97 509 2011.94 509 2015 C506.03 2015 503.06 2015 500 2015 C500 2017.64 500 2020.28 500 2023 C497.36 2023 494.72 2023 492 2023 C492 2025.64 492 2028.28 492 2031 C489.36 2031 486.72 2031 484 2031 C484 2033.97 484 2036.94 484 2040 C481.36 2040 478.72 2040 476 2040 C476 2042.64 476 2045.28 476 2048 C473.03 2048 470.06 2048 467 2048 C467 2050.64 467 2053.28 467 2056 C461.72 2056 456.44 2056 451 2056 C451 2058.64 451 2061.28 451 2064 C450 2065 450 2065 448.15234375 2065.09765625 C446.1015625 2065.06510417 444.05078125 2065.03255208 442 2065 C442 2067.64 442 2070.28 442 2073 C439.36 2073 436.72 2073 434 2073 C434 2075.64 434 2078.28 434 2081 C431.36 2081 428.72 2081 426 2081 C426 2083.64 426 2086.28 426 2089 C423.03 2089 420.06 2089 417 2089 C417 2091.97 417 2094.94 417 2098 C414.36 2098 411.72 2098 409 2098 C409 2100.64 409 2103.28 409 2106 C406.36 2106 403.72 2106 401 2106 C401 2108.64 401 2111.28 401 2114 C395.39 2114 389.78 2114 384 2114 C384 2116.97 384 2119.94 384 2123 C381.36 2123 378.72 2123 376 2123 C376 2125.64 376 2128.28 376 2131 C373.03 2131 370.06 2131 367 2131 C367 2133.64 367 2136.28 367 2139 C361.72 2139 356.44 2139 351 2139 C351 2141.97 351 2144.94 351 2148 C348.03 2148 345.06 2148 342 2148 C342 2150.64 342 2153.28 342 2156 C339.36 2156 336.72 2156 334 2156 C334 2158.64 334 2161.28 334 2164 C328.39 2164 322.78 2164 317 2164 C317 2166.97 317 2169.94 317 2173 C314.36 2173 311.72 2173 309 2173 C309 2175.64 309 2178.28 309 2181 C303.39 2181 297.78 2181 292 2181 C292 2183.64 292 2186.28 292 2189 C289.36 2189 286.72 2189 284 2189 C284 2191.97 284 2194.94 284 2198 C278.39 2198 272.78 2198 267 2198 C267 2200.64 267 2203.28 267 2206 C264.36 2206 261.72 2206 259 2206 C259 2208.64 259 2211.28 259 2214 C253.72 2214 248.44 2214 243 2214 C243 2216.64 243 2219.28 243 2222 C242 2223 242 2223 240.15234375 2223.09765625 C238.1015625 2223.06510417 236.05078125 2223.03255208 234 2223 C234 2225.64 234 2228.28 234 2231 C228.72 2231 223.44 2231 218 2231 C218 2233.64 218 2236.28 218 2239 C215.03 2239 212.06 2239 209 2239 C209 2241.97 209 2244.94 209 2248 C203.72 2248 198.44 2248 193 2248 C193 2250.64 193 2253.28 193 2256 C187.39 2256 181.78 2256 176 2256 C176 2258.64 176 2261.28 176 2264 C173.36 2264 170.72 2264 168 2264 C168.020625 2265.299375 168.04125 2266.59875 168.0625 2267.9375 C168.08399454 2269.29165633 168.07148199 2270.64756083 168 2272 C167 2273 167 2273 163.40234375 2273.09765625 C161.91403133 2273.0909822 160.42573568 2273.07902183 158.9375 2273.0625 C157.79958008 2273.05573242 157.79958008 2273.05573242 156.63867188 2273.04882812 C154.75908129 2273.0370068 152.87953101 2273.01907078 151 2273 C151 2275.64 151 2278.28 151 2281 C145.39 2281 139.78 2281 134 2281 C134 2283.64 134 2286.28 134 2289 C128.72 2289 123.44 2289 118 2289 C118 2291.97 118 2294.94 118 2298 C112.39 2298 106.78 2298 101 2298 C101 2300.64 101 2303.28 101 2306 C95.39 2306 89.78 2306 84 2306 C84 2308.64 84 2311.28 84 2314 C78.72 2314 73.44 2314 68 2314 C68 2316.64 68 2319.28 68 2322 C62.39 2322 56.78 2322 51 2322 C51 2324.97 51 2327.94 51 2331 C45.39 2331 39.78 2331 34 2331 C34 2333.64 34 2336.28 34 2339 C28.72 2339 23.44 2339 18 2339 C18 2341.64 18 2344.28 18 2347 C12.39 2347 6.78 2347 1 2347 C1 2349.97 1 2352.94 1 2356 C-7.25 2356 -15.5 2356 -24 2356 C-24 2358.64 -24 2361.28 -24 2364 C-29.28 2364 -34.56 2364 -40 2364 C-40 2366.64 -40 2369.28 -40 2372 C-48.25 2372 -56.5 2372 -65 2372 C-65 2374.97 -65 2377.94 -65 2381 C-70.61 2381 -76.22 2381 -82 2381 C-82 2383.64 -82 2386.28 -82 2389 C-90.25 2389 -98.5 2389 -107 2389 C-107 2391.64 -107 2394.28 -107 2397 C-112.61 2397 -118.22 2397 -124 2397 C-124 2399.97 -124 2402.94 -124 2406 C-132.25 2406 -140.5 2406 -149 2406 C-149 2408.64 -149 2411.28 -149 2414 C-157.25 2414 -165.5 2414 -174 2414 C-174 2416.64 -174 2419.28 -174 2422 C-181.92 2422 -189.84 2422 -198 2422 C-198 2424.64 -198 2427.28 -198 2430 C-199 2431 -199 2431 -201.31665039 2431.11352539 C-202.31688232 2431.10828857 -203.31711426 2431.10305176 -204.34765625 2431.09765625 C-205.42724609 2431.09443359 -206.50683594 2431.09121094 -207.61914062 2431.08789062 C-209.32360352 2431.07532227 -209.32360352 2431.07532227 -211.0625 2431.0625 C-212.77276367 2431.05573242 -212.77276367 2431.05573242 -214.51757812 2431.04882812 C-217.34510351 2431.03699747 -220.1725264 2431.0205141 -223 2431 C-222.979375 2432.134375 -222.95875 2433.26875 -222.9375 2434.4375 C-223 2438 -223 2438 -224 2439 C-226.44830426 2439.08843793 -228.86820599 2439.11528752 -231.31640625 2439.09765625 C-232.04746078 2439.0962413 -232.77851532 2439.09482635 -233.53172302 2439.09336853 C-235.87535632 2439.08775408 -238.21889539 2439.07519922 -240.5625 2439.0625 C-242.14778508 2439.05748686 -243.73307166 2439.05292363 -245.31835938 2439.04882812 C-249.2122761 2439.03777997 -253.10612205 2439.02050572 -257 2439 C-257 2441.64 -257 2444.28 -257 2447 C-267.89 2447 -278.78 2447 -290 2447 C-290 2449.97 -290 2452.94 -290 2456 C-298.25 2456 -306.5 2456 -315 2456 C-315 2458.64 -315 2461.28 -315 2464 C-325.89 2464 -336.78 2464 -348 2464 C-348 2466.64 -348 2469.28 -348 2472 C-359.22 2472 -370.44 2472 -382 2472 C-382 2474.97 -382 2477.94 -382 2481 C-395.53 2481 -409.06 2481 -423 2481 C-423 2483.64 -423 2486.28 -423 2489 C-436.86 2489 -450.72 2489 -465 2489 C-465 2491.64 -465 2494.28 -465 2497 C-478.53 2497 -492.06 2497 -506 2497 C-506 2499.97 -506 2502.94 -506 2506 C-522.5 2506 -539 2506 -556 2506 C-556 2508.64 -556 2511.28 -556 2514 C-578.11 2514 -600.22 2514 -623 2514 C-623 2516.64 -623 2519.28 -623 2522 C-647.75 2522 -672.5 2522 -698 2522 C-698 2524.97 -698 2527.94 -698 2531 C-728.03 2531 -758.06 2531 -789 2531 C-789 2533.64 -789 2536.28 -789 2539 C-1385.31 2539 -1981.62 2539 -2596 2539 C-2596 2222.86 -2596 1906.72 -2596 1581 C-2071.63 1581 -1547.26 1581 -1007 1581 C-1007 1578.36 -1007 1575.72 -1007 1573 C-957.5 1573 -908 1573 -857 1573 C-857 1570.03 -857 1567.06 -857 1564 C-829.61 1564 -802.22 1564 -774 1564 C-774 1561.36 -774 1558.72 -774 1556 C-760.14 1556 -746.28 1556 -732 1556 C-732 1553.36 -732 1550.72 -732 1548 C-718.14 1548 -704.28 1548 -690 1548 C-690 1545.03 -690 1542.06 -690 1539 C-676.47 1539 -662.94 1539 -649 1539 C-649 1536.36 -649 1533.72 -649 1531 C-637.78 1531 -626.56 1531 -615 1531 C-615 1528.36 -615 1525.72 -615 1523 C-606.75 1523 -598.5 1523 -590 1523 C-590 1520.03 -590 1517.06 -590 1514 C-579.11 1514 -568.22 1514 -557 1514 C-557 1511.36 -557 1508.72 -557 1506 C-548.75 1506 -540.5 1506 -532 1506 C-532 1503.36 -532 1500.72 -532 1498 C-523.75 1498 -515.5 1498 -507 1498 C-507 1495.36 -507 1492.72 -507 1490 C-501.72 1490 -496.44 1490 -491 1490 C-491 1487.03 -491 1484.06 -491 1481 C-482.75 1481 -474.5 1481 -466 1481 C-466 1478.36 -466 1475.72 -466 1473 C-460.39 1473 -454.78 1473 -449 1473 C-449 1470.36 -449 1467.72 -449 1465 C-440.75 1465 -432.5 1465 -424 1465 C-424 1462.03 -424 1459.06 -424 1456 C-418.39 1456 -412.78 1456 -407 1456 C-407 1453.36 -407 1450.72 -407 1448 C-404.36 1448 -401.72 1448 -399 1448 C-399 1445.36 -399 1442.72 -399 1440 C-393.39 1440 -387.78 1440 -382 1440 C-382 1437.03 -382 1434.06 -382 1431 C-376.72 1431 -371.44 1431 -366 1431 C-366 1428.36 -366 1425.72 -366 1423 C-360.39 1423 -354.78 1423 -349 1423 C-349 1420.36 -349 1417.72 -349 1415 C-343.72 1415 -338.44 1415 -333 1415 C-333 1412.36 -333 1409.72 -333 1407 C-332 1406 -332 1406 -330.15234375 1405.90234375 C-328.1015625 1405.93489583 -326.05078125 1405.96744792 -324 1406 C-324 1403.36 -324 1400.72 -324 1398 C-318.72 1398 -313.44 1398 -308 1398 C-308 1395.36 -308 1392.72 -308 1390 C-305.03 1390 -302.06 1390 -299 1390 C-299 1387.03 -299 1384.06 -299 1381 C-293.72 1381 -288.44 1381 -283 1381 C-283 1378.36 -283 1375.72 -283 1373 C-280.03 1373 -277.06 1373 -274 1373 C-274 1370.36 -274 1367.72 -274 1365 C-268.72 1365 -263.44 1365 -258 1365 C-258 1362.36 -258 1359.72 -258 1357 C-257 1356 -257 1356 -255.15234375 1355.90234375 C-253.1015625 1355.93489583 -251.05078125 1355.96744792 -249 1356 C-249 1353.36 -249 1350.72 -249 1348 C-246.36 1348 -243.72 1348 -241 1348 C-241 1345.36 -241 1342.72 -241 1340 C-235.39 1340 -229.78 1340 -224 1340 C-224 1337.03 -224 1334.06 -224 1331 C-221.36 1331 -218.72 1331 -216 1331 C-216 1328.36 -216 1325.72 -216 1323 C-213.36 1323 -210.72 1323 -208 1323 C-208 1320.36 -208 1317.72 -208 1315 C-205.03 1315 -202.06 1315 -199 1315 C-199 1312.03 -199 1309.06 -199 1306 C-196.36 1306 -193.72 1306 -191 1306 C-191 1303.36 -191 1300.72 -191 1298 C-188.36 1298 -185.72 1298 -183 1298 C-183 1295.36 -183 1292.72 -183 1290 C-177.39 1290 -171.78 1290 -166 1290 C-166 1287.03 -166 1284.06 -166 1281 C-163.36 1281 -160.72 1281 -158 1281 C-158 1278.36 -158 1275.72 -158 1273 C-155.03 1273 -152.06 1273 -149 1273 C-149 1270.36 -149 1267.72 -149 1265 C-146.36 1265 -143.72 1265 -141 1265 C-141 1259.39 -141 1253.78 -141 1248 C-138.36 1248 -135.72 1248 -133 1248 C-133 1245.36 -133 1242.72 -133 1240 C-130.03 1240 -127.06 1240 -124 1240 C-124 1237.36 -124 1234.72 -124 1232 C-121.36 1232 -118.72 1232 -116 1232 C-116 1229.03 -116 1226.06 -116 1223 C-113.36 1223 -110.72 1223 -108 1223 C-108 1220.36 -108 1217.72 -108 1215 C-105.36 1215 -102.72 1215 -100 1215 C-100 1212.36 -100 1209.72 -100 1207 C-97.03 1207 -94.06 1207 -91 1207 C-91 1204.03 -91 1201.06 -91 1198 C-88.36 1198 -85.72 1198 -83 1198 C-83 1195.36 -83 1192.72 -83 1190 C-80.36 1190 -77.72 1190 -75 1190 C-75.01160156 1188.85660156 -75.02320312 1187.71320313 -75.03515625 1186.53515625 C-75.04453288 1185.04427246 -75.05363321 1183.55338691 -75.0625 1182.0625 C-75.07506836 1180.93038086 -75.07506836 1180.93038086 -75.08789062 1179.77539062 C-75.09652441 1177.85005687 -75.05224333 1175.92464419 -75 1174 C-74 1173 -74 1173 -72.15234375 1172.90234375 C-70.1015625 1172.93489583 -68.05078125 1172.96744792 -66 1173 C-66 1170.36 -66 1167.72 -66 1165 C-63.36 1165 -60.72 1165 -58 1165 C-58 1162.36 -58 1159.72 -58 1157 C-55.36 1157 -52.72 1157 -50 1157 C-49.505 1148.585 -49.505 1148.585 -49 1140 C-46.36 1140 -43.72 1140 -41 1140 C-41 1137.36 -41 1134.72 -41 1132 C-38.36 1132 -35.72 1132 -33 1132 C-33 1129.03 -33 1126.06 -33 1123 C-30.36 1123 -27.72 1123 -25 1123 C-25 1117.72 -25 1112.44 -25 1107 C-22.03 1107 -19.06 1107 -16 1107 C-16 1101.39 -16 1095.78 -16 1090 C-13.36 1090 -10.72 1090 -8 1090 C-8 1087.36 -8 1084.72 -8 1082 C-5.36 1082 -2.72 1082 0 1082 C0 1076.39 0 1070.78 0 1065 C2.97 1065 5.94 1065 9 1065 C9 1059.39 9 1053.78 9 1048 C11.64 1048 14.28 1048 17 1048 C17 1045.36 17 1042.72 17 1040 C19.64 1040 22.28 1040 25 1040 C25 1034.72 25 1029.44 25 1024 C27.97 1024 30.94 1024 34 1024 C34 1015.75 34 1007.5 34 999 C36.64 999 39.28 999 42 999 C42 993.39 42 987.78 42 982 C44.64 982 47.28 982 50 982 C50 976.39 50 970.78 50 965 C52.97 965 55.94 965 59 965 C59 959.72 59 954.44 59 949 C61.64 949 64.28 949 67 949 C67 940.75 67 932.5 67 924 C69.64 924 72.28 924 75 924 C75 915.75 75 907.5 75 899 C77.97 899 80.94 899 84 899 C84 890.75 84 882.5 84 874 C86.64 874 89.28 874 92 874 C92 865.75 92 857.5 92 849 C94.64 849 97.28 849 100 849 C100 838.11 100 827.22 100 816 C102.97 816 105.94 816 109 816 C109 804.78 109 793.56 109 782 C111.64 782 114.28 782 117 782 C117 765.5 117 749 117 732 C119.64 732 122.28 732 125 732 C125 712.86 125 693.72 125 674 C127.64 674 130.28 674 133 674 C133 583.58 133 493.16 133 400 C130.36 400 127.72 400 125 400 C125 380.86 125 361.72 125 342 C122.36 342 119.72 342 117 342 C117 328.14 117 314.28 117 300 C114.36 300 111.72 300 109 300 C109 289.11 109 278.22 109 267 C106.36 267 103.72 267 101 267 C100 266 100 266 99.88647461 262.21459961 C99.88663378 260.52717271 99.89233083 258.83974095 99.90234375 257.15234375 C99.9037587 256.2659169 99.90517365 255.37949005 99.90663147 254.46620178 C99.91224785 251.62326746 99.92480309 248.78041069 99.9375 245.9375 C99.94251289 244.01497509 99.94707616 242.09244896 99.95117188 240.16992188 C99.96222259 235.44658451 99.97949817 230.72330542 100 226 C97.36 226 94.72 226 92 226 C92 217.75 92 209.5 92 201 C89.36 201 86.72 201 84 201 C84 192.75 84 184.5 84 176 C81.03 176 78.06 176 75 176 C75 167.75 75 159.5 75 151 C72.36 151 69.72 151 67 151 C67 142.75 67 134.5 67 126 C64.36 126 61.72 126 59 126 C59 120.39 59 114.78 59 109 C56.03 109 53.06 109 50 109 C50 103.39 50 97.78 50 92 C47.36 92 44.72 92 42 92 C42 86.72 42 81.44 42 76 C39.36 76 36.72 76 34 76 C34 70.39 34 64.78 34 59 C31.03 59 28.06 59 25 59 C25 53.72 25 48.44 25 43 C22.36 43 19.72 43 17 43 C17 37.39 17 31.78 17 26 C14.36 26 11.72 26 9 26 C9 20.39 9 14.78 9 9 C6.03 9 3.06 9 0 9 C0 6.03 0 3.06 0 0 Z " fill="#FFFFFF" transform="translate(6215,3486)"/>
<path d="M0 0 C318.78 0 637.56 0 966 0 C966 521.73 966 1043.46 966 1581 C1221.42 1581 1476.84 1581 1740 1581 C1740 1897.14 1740 2213.28 1740 2539 C1165.8 2539 591.6 2539 0 2539 C0 1701.13 0 863.26 0 0 Z " fill="#FFFFFF" transform="translate(1381,3486)"/>
</svg>
